<svg width="14" height="14" fill="none" xmlns="http://www.w3.org/2000/svg"><path d="M7 0c-.547 0-1 .453-1 1v1.14C4.281 2.59 3 4.146 3 6v3.984s-.016.278-.148.536c-.133.261-.293.48-.852.48v1h10v-1c-.594 0-.746-.219-.871-.469a1.388 1.388 0 01-.129-.527V6c0-1.855-1.281-3.41-3-3.86V1c0-.547-.453-1-1-1zm0 12c-.55 0-1 .45-1 1s.45 1 1 1 1-.45 1-1-.45-1-1-1zm0-9c1.664 0 3 1.336 3 3v3.996s-.012.477.234.973c.004.011.012.02.016.031H3.727a.085.085 0 01.015-.02c.25-.492.258-.964.258-.964V6c0-1.664 1.336-3 3-3zm-6.004.992a.51.51 0 00-.453.32 7.006 7.006 0 00.012 5.383.5.5 0 00.922-.39 6.023 6.023 0 01-.008-4.617.496.496 0 00-.047-.473.5.5 0 00-.426-.223zm12.004 0a.501.501 0 00-.457.696 6.024 6.024 0 01-.008 4.617.5.5 0 00.922.39 7.024 7.024 0 00.012-5.383.503.503 0 00-.469-.32z" fill="#919095"/></svg>