<svg width="10" height="14" fill="none" xmlns="http://www.w3.org/2000/svg"><path d="M.5 0a.5.5 0 00-.5.5V4h1V1h8v12h1V.5a.5.5 0 00-.5-.5h-9zm3.97 2c-.822 0-1.5.678-1.5 1.5S3.649 5 4.47 5c.823 0 1.5-.678 1.5-1.5S5.294 2 4.47 2zm0 1c.283 0 .5.218.5.5 0 .282-.217.5-.5.5a.493.493 0 01-.5-.5c0-.282.219-.5.5-.5zm-.986 1.998a.5.5 0 00-.132.023l-1.94.602a.5.5 0 00-.25.176L.102 7.197a.5.5 0 10.796.606l.963-1.274 1.033-.318-.593 4.27-1.936.537a.5.5 0 10.27.964l2.25-.625a.5.5 0 00.361-.414L3.4 9.832l1.266.95.312 1.804a.5.5 0 10.985-.172l-.346-2a.5.5 0 00-.191-.314L3.559 8.7l.275-1.966.523 1a.5.5 0 00.444.268L6.5 8a.5.5 0 100-1l-1.398.002-.909-1.734A.5.5 0 003.75 5h-.188a.5.5 0 00-.078-.002z" fill="#919095"/></svg>