<svg width="16" height="19" fill="none" xmlns="http://www.w3.org/2000/svg"><path d="M8 .406a4.388 4.388 0 00-4.375 4.375.46.46 0 00.469.469.46.46 0 00.468-.469A3.448 3.448 0 018 1.344a3.448 3.448 0 013.438 3.437V8.22H2.374A1.4 1.4 0 00.969 9.625a1.4 1.4 0 001.406 1.406.46.46 0 00.469-.469.46.46 0 00-.469-.468.46.46 0 01-.469-.469.46.46 0 01.469-.469h11.25a.46.46 0 01.469.469.46.46 0 01-.469.469H4.719a.46.46 0 00-.469.469.46.46 0 00.469.468H13v1.094c0 2.75-2.25 5-5 5s-5-2.25-5-5a.46.46 0 00-.469-.469.46.46 0 00-.469.469A5.935 5.935 0 008 18.063a5.935 5.935 0 005.938-5.938V11a1.409 1.409 0 001.093-1.375 1.4 1.4 0 00-1.406-1.406h-1.25V4.78A4.388 4.388 0 008 .406zM8 13.22a.46.46 0 00-.469.469v1.093A.46.46 0 008 15.25a.46.46 0 00.469-.469v-1.094A.46.46 0 008 13.22z" fill="#818181"/></svg>