<svg width="17" height="18" fill="none" xmlns="http://www.w3.org/2000/svg"><path d="M2.125.25C1.095.25.25 1.095.25 2.125v10c0 1.03.845 1.875 1.875 1.875H4v3.042L8.565 14h6.06c1.03 0 1.875-.845 1.875-1.875v-10c0-1.03-.845-1.875-1.875-1.875h-12.5zm0 1.25h12.5c.352 0 .625.273.625.625v10a.617.617 0 01-.625.625h-6.44L5.25 14.708V12.75H2.125a.617.617 0 01-.625-.625v-10c0-.352.273-.625.625-.625zm2.5 5A.623.623 0 004 7.125c0 .347.278.625.625.625a.623.623 0 00.625-.625.623.623 0 00-.625-.625zm3.75 0a.623.623 0 00-.625.625c0 .347.278.625.625.625A.623.623 0 009 7.125a.623.623 0 00-.625-.625zm3.75 0a.623.623 0 00-.625.625c0 .347.278.625.625.625a.623.623 0 00.625-.625.623.623 0 00-.625-.625z" fill="#919095"/></svg>