<svg width="18" height="18" fill="none" xmlns="http://www.w3.org/2000/svg"><path d="M2.813 2.25c-.928 0-1.688.76-1.688 1.688v10.124c0 .928.76 1.688 1.688 1.688h12.374c.928 0 1.688-.76 1.688-1.688V3.938c0-.928-.76-1.688-1.688-1.688H2.813zm0 1.125h12.374c.317 0 .563.246.563.563v8.173L11.808 7.95l-2.197 2.474L6.223 6.85 2.25 11.325V3.938c0-.317.246-.563.563-.563zM12.374 4.5c-.62 0-1.125.505-1.125 1.125a1.127 1.127 0 002.251 0c0-.62-.505-1.125-1.125-1.125zM6.249 8.512l5.796 6.113H2.813a.555.555 0 01-.563-.563v-1.041l3.999-4.509zm5.581 1.103l3.92 4.131v.316a.555.555 0 01-.563.563h-1.595l-3.203-3.384 1.441-1.626z" fill="#fff"/></svg>