<svg width="48" height="50" fill="none" xmlns="http://www.w3.org/2000/svg"><path d="M22.5 0C10.093 0 0 10.093 0 22.5S10.093 45 22.5 45c2.595 0 4.436-.296 6.059-.557C29.977 44.215 31.315 44 33 44c8.165 0 13.199 5.603 13.248 5.66a1.002 1.002 0 001.291.18 1 1 0 00.373-1.248c-.11-.248-2.827-6.108-13.719-8.63l-.296-.081c-2.692-.666-4.866-1.75-6.46-3.225-2.058-1.902-2.45-3.822-2.453-3.834a1.01 1.01 0 00-1.074-.818A1 1 0 0023 33c0 .102.006 2.09.354 3.969-.299.02-.581.031-.854.031C14.505 37 8 30.495 8 22.5S14.505 8 22.5 8 37 14.505 37 22.5c0 .596-.037 1.199-.113 1.799A27.62 27.62 0 0033 24c-.582 0-1 .5-1 1.02.012.543.455.979.998.98.02 0 2.1.02 3.963 1.217 3.087 1.984 3.826 4.98 3.832 5.006.093.412.435.72.855.77.417.042.826-.17 1.014-.55A22.244 22.244 0 0045 22.5C45 10.093 34.907 0 22.5 0zm15.135 32.002a.555.555 0 00-.541.275c-.212.371-.054 1.106.373 1.746.433.648.8.977 1.092.977.268 0 .536-.336.41-1.147-.075-.483-.358-1.535-1.072-1.794a.934.934 0 00-.262-.057zM34.367 35c-.449 0-.822.117-1.052.342-.59.578-.325 1.593.578 2.22.395.274.962.438 1.52.438.566 0 1.04-.17 1.333-.477.525-.56.224-1.352-.77-2.02A2.927 2.927 0 0034.368 35z" fill="#fff"/></svg>