<svg width="16" height="16" fill="none" xmlns="http://www.w3.org/2000/svg"><path d="M7.515 0a4.313 4.313 0 100 8.626 4.313 4.313 0 000-8.626zm0 1.125a3.185 3.185 0 013.187 3.188A3.185 3.185 0 017.515 7.5a3.185 3.185 0 01-3.188-3.188 3.185 3.185 0 013.188-3.187zm0 9A8.595 8.595 0 00.07 14.456a.563.563 0 00.225.769.53.53 0 00.281.075.544.544 0 00.488-.281 7.423 7.423 0 016.45-3.769 7.476 7.476 0 016.468 3.769.57.57 0 00.769.206.57.57 0 00.206-.769 8.595 8.595 0 00-7.443-4.331z" fill="#818181"/></svg>