<svg width="241" height="211" fill="none" xmlns="http://www.w3.org/2000/svg"><g clip-path="url(#clip0)"><g filter="url(#filter0_f)"><path d="M120.5 157c28.443 0 51.5-23.057 51.5-51.5S148.943 54 120.5 54 69 77.057 69 105.5 92.057 157 120.5 157z" fill="#F3972B" fill-opacity=".24"/></g><path d="M124.025 90.25c-1.483 0-2.758-.225-3.825-.675-1.067-.45-1.875-1.042-2.425-1.775-.55-.733-.842-1.525-.875-2.375a.509.509 0 01.525-.525h2.225c.2 0 .35.042.45.125a.951.951 0 01.325.35c.167.567.55 1.042 1.15 1.425.6.383 1.417.575 2.45.575 1.183 0 2.075-.192 2.675-.575.6-.4.9-.95.9-1.65 0-.467-.158-.85-.475-1.15-.3-.3-.758-.558-1.375-.775-.6-.217-1.5-.483-2.7-.8-1.967-.467-3.408-1.083-4.325-1.85-.9-.783-1.35-1.892-1.35-3.325 0-.967.258-1.825.775-2.575.533-.75 1.292-1.342 2.275-1.775 1-.433 2.158-.65 3.475-.65 1.367 0 2.55.242 3.55.725s1.758 1.092 2.275 1.825c.533.717.817 1.433.85 2.15a.509.509 0 01-.525.525h-2.325c-.35 0-.592-.158-.725-.475-.1-.533-.433-.975-1-1.325-.567-.367-1.267-.55-2.1-.55-.933 0-1.667.175-2.2.525-.533.35-.8.858-.8 1.525 0 .467.133.85.4 1.15.267.3.683.567 1.25.8.583.233 1.417.492 2.5.775 1.467.333 2.633.708 3.5 1.125.883.417 1.533.942 1.95 1.575.417.633.625 1.442.625 2.425 0 1.067-.3 2-.9 2.8-.583.783-1.417 1.383-2.5 1.8-1.067.417-2.3.625-3.7.625zm10.59-.25a.668.668 0 01-.45-.15.608.608 0 01-.175-.45V73.125c0-.183.058-.333.175-.45a.61.61 0 01.45-.175h1.975c.35 0 .6.158.75.475l4.825 9 4.875-9c.167-.317.417-.475.75-.475h1.95a.61.61 0 01.45.175.608.608 0 01.175.45V89.4a.608.608 0 01-.175.45.668.668 0 01-.45.15h-2.1a.578.578 0 01-.425-.175.577.577 0 01-.175-.425V78.575l-3.5 6.675c-.217.367-.5.55-.85.55h-1.025c-.35 0-.633-.183-.85-.55l-3.5-6.675V89.4a.577.577 0 01-.175.425c-.1.117-.242.175-.425.175h-2.1zm25.714.25c-1.484 0-2.759-.225-3.825-.675-1.067-.45-1.875-1.042-2.425-1.775-.55-.733-.842-1.525-.875-2.375a.509.509 0 01.525-.525h2.225c.2 0 .35.042.45.125a.96.96 0 01.325.35c.166.567.55 1.042 1.15 1.425.6.383 1.416.575 2.45.575 1.183 0 2.075-.192 2.675-.575.6-.4.9-.95.9-1.65 0-.467-.159-.85-.475-1.15-.3-.3-.759-.558-1.375-.775-.6-.217-1.5-.483-2.7-.8-1.967-.467-3.409-1.083-4.325-1.85-.9-.783-1.35-1.892-1.35-3.325 0-.967.258-1.825.775-2.575.533-.75 1.291-1.342 2.275-1.775 1-.433 2.158-.65 3.475-.65 1.366 0 2.55.242 3.55.725s1.758 1.092 2.275 1.825c.533.717.816 1.433.85 2.15a.509.509 0 01-.525.525h-2.325c-.35 0-.592-.158-.725-.475-.1-.533-.434-.975-1-1.325-.567-.367-1.267-.55-2.1-.55-.934 0-1.667.175-2.2.525-.534.35-.8.858-.8 1.525 0 .467.133.85.4 1.15.266.3.683.567 1.25.8.583.233 1.416.492 2.5.775 1.466.333 2.633.708 3.5 1.125.883.417 1.533.942 1.95 1.575.416.633.625 1.442.625 2.425 0 1.067-.3 2-.9 2.8-.584.783-1.417 1.383-2.5 1.8-1.067.417-2.3.625-3.7.625z" fill="#fff"/><path d="M76.775 90.25c-1.467 0-2.717-.233-3.75-.7-1.017-.467-1.783-1.05-2.3-1.75-.5-.717-.767-1.45-.8-2.2 0-.15.05-.267.15-.35.117-.1.25-.15.4-.15h2.25c.367 0 .608.167.725.5.367 1.2 1.483 1.8 3.35 1.8 1.017 0 1.817-.233 2.4-.7.583-.483.875-1.167.875-2.05 0-1.667-1.042-2.5-3.125-2.5h-2.575a.61.61 0 01-.45-.175.579.579 0 01-.175-.425V80.5c0-.267.117-.517.35-.75l4.475-4.375h-7.15A.579.579 0 0171 75.2a.579.579 0 01-.175-.425v-1.65c0-.183.05-.333.15-.45a.61.61 0 01.45-.175H82.15c.183 0 .333.058.45.175a.61.61 0 01.175.45v1.5c0 .25-.108.483-.325.7l-4.325 4.45.3.025c1.6.133 2.867.617 3.8 1.45.95.833 1.425 2.025 1.425 3.575 0 1.1-.3 2.058-.9 2.875-.583.817-1.4 1.45-2.45 1.9-1.033.433-2.208.65-3.525.65zm15.947 0c-1.4 0-2.625-.267-3.675-.8-1.05-.533-1.858-1.258-2.425-2.175-.567-.933-.85-1.983-.85-3.15 0-1.483.642-3.1 1.925-4.85L92.272 73c.1-.15.209-.267.325-.35.134-.1.309-.15.525-.15h2.325c.15 0 .275.058.375.175.1.1.15.225.15.375 0 .083-.041.192-.125.325l-3.5 4.85a4.424 4.424 0 011.075-.125 6.49 6.49 0 013.075.85c.95.517 1.7 1.225 2.25 2.125.567.9.85 1.9.85 3 0 1.117-.283 2.15-.85 3.1-.55.933-1.35 1.683-2.4 2.25-1.033.55-2.241.825-3.625.825zm-.025-2.875c.95 0 1.75-.283 2.4-.85.65-.583.975-1.392.975-2.425 0-1.017-.325-1.808-.975-2.375-.65-.583-1.45-.875-2.4-.875s-1.75.292-2.4.875c-.65.567-.975 1.358-.975 2.375 0 1.033.325 1.842.975 2.425.65.567 1.45.85 2.4.85zm15.374 2.9c-1.383 0-2.575-.233-3.575-.7-.983-.467-1.742-1.083-2.275-1.85a4.666 4.666 0 01-.825-2.475v-.05c0-.133.05-.242.15-.325a.566.566 0 01.375-.125h2.325c.383 0 .633.167.75.5.233.733.617 1.275 1.15 1.625.55.35 1.192.525 1.925.525.933 0 1.708-.283 2.325-.85.633-.567.95-1.358.95-2.375 0-.9-.317-1.633-.95-2.2-.617-.567-1.392-.85-2.325-.85-.5 0-.908.067-1.225.2a4.094 4.094 0 00-.925.55c-.2.15-.358.258-.475.325a.835.835 0 01-.375.075h-2.3a.598.598 0 01-.4-.15.597.597 0 01-.15-.4l.875-8.55a.733.733 0 01.2-.475.68.68 0 01.5-.2h9.4c.167 0 .308.058.425.175a.577.577 0 01.175.425v1.675a.577.577 0 01-.175.425.578.578 0 01-.425.175h-7.225l-.4 4.075c.817-.567 1.908-.85 3.275-.85 1.083 0 2.083.233 3 .7a5.32 5.32 0 012.225 1.975c.55.85.825 1.842.825 2.975 0 1.217-.283 2.283-.85 3.2-.567.9-1.367 1.6-2.4 2.1-1.017.483-2.208.725-3.575.725z" fill="#F3972B"/><path d="M53.038 117.144c-.904 0-1.656-.3-2.256-.9-.6-.608-.9-1.356-.9-2.244 0-.888.3-1.632.9-2.232.6-.608 1.352-.912 2.256-.912.592 0 1.124.144 1.596.432.472.28.816.66 1.032 1.14l-.648.372c-.16-.36-.42-.644-.78-.852a2.248 2.248 0 00-1.2-.324c-.664 0-1.224.232-1.68.696-.456.456-.684 1.016-.684 1.68 0 .664.228 1.228.684 1.692.456.456 1.016.684 1.68.684.448 0 .848-.104 1.2-.312a2.32 2.32 0 00.828-.864l.66.384c-.248.48-.612.86-1.092 1.14a3.11 3.11 0 01-1.596.42zm6.539-6.288c.888 0 1.604.316 2.148.948.552.624.828 1.364.828 2.22 0 .088-.008.212-.024.372H57.26c.08.608.336 1.092.768 1.452.44.352.98.528 1.62.528.456 0 .848-.092 1.176-.276.336-.192.588-.44.756-.744l.696.408a2.85 2.85 0 01-1.08 1.008c-.456.248-.976.372-1.56.372-.944 0-1.712-.296-2.304-.888-.592-.592-.888-1.344-.888-2.256 0-.896.292-1.644.876-2.244.584-.6 1.336-.9 2.256-.9zm0 .768c-.624 0-1.148.188-1.572.564-.416.368-.664.848-.744 1.44h4.476c-.08-.632-.324-1.124-.732-1.476a2.118 2.118 0 00-1.428-.528zm7.452-.768c.856 0 1.584.304 2.184.912.608.608.912 1.352.912 2.232 0 .88-.304 1.624-.912 2.232-.6.608-1.328.912-2.184.912-1.064 0-1.872-.44-2.424-1.32v3.576h-.792V111h.792v1.176c.552-.88 1.36-1.32 2.424-1.32zm-1.74 4.836c.456.456 1.016.684 1.68.684.664 0 1.224-.228 1.68-.684a2.324 2.324 0 00.684-1.692c0-.664-.228-1.224-.684-1.68a2.264 2.264 0 00-1.68-.696c-.664 0-1.224.232-1.68.696-.456.456-.684 1.016-.684 1.68 0 .664.228 1.228.684 1.692zm9.968-1.776c.656.24.984.708.984 1.404 0 .488-.163.892-.492 1.212-.32.312-.783.468-1.391.468h-2.916v-6h2.676c.584 0 1.035.152 1.356.456.32.296.48.68.48 1.152 0 .6-.232 1.036-.697 1.308zm-1.14-2.148h-1.883v1.824h1.884c.696 0 1.044-.312 1.044-.936 0-.28-.093-.496-.277-.648-.175-.16-.431-.24-.767-.24zm.24 4.464c.353 0 .62-.084.805-.252.191-.168.287-.404.287-.708 0-.28-.096-.5-.287-.66-.184-.168-.453-.252-.805-.252h-2.123v1.872h2.124zM81.81 111h.671v6h-.791v-4.62L78.114 117h-.672v-6h.792v4.62L81.81 111zm5.142 6.144c-.904 0-1.656-.3-2.256-.9-.6-.608-.9-1.356-.9-2.244 0-.888.3-1.632.9-2.232.6-.608 1.352-.912 2.256-.912.592 0 1.124.144 1.596.432.472.28.816.66 1.032 1.14l-.648.372c-.16-.36-.42-.644-.78-.852a2.248 2.248 0 00-1.2-.324c-.664 0-1.224.232-1.68.696-.456.456-.684 1.016-.684 1.68 0 .664.228 1.228.684 1.692.456.456 1.016.684 1.68.684.448 0 .848-.104 1.2-.312a2.32 2.32 0 00.828-.864l.66.384c-.248.48-.612.86-1.092 1.14a3.11 3.11 0 01-1.596.42zm9.585 0c-.768 0-1.428-.18-1.98-.54a2.888 2.888 0 01-1.14-1.512l.72-.42c.153.52.433.928.84 1.224.408.288.932.432 1.572.432.624 0 1.108-.136 1.452-.408.352-.28.528-.648.528-1.104 0-.44-.16-.772-.48-.996-.32-.224-.848-.456-1.584-.696-.871-.288-1.448-.52-1.728-.696-.64-.384-.96-.94-.96-1.668 0-.712.248-1.272.745-1.68.495-.416 1.107-.624 1.835-.624.656 0 1.225.172 1.704.516.48.336.836.768 1.068 1.296l-.708.396c-.384-.928-1.072-1.392-2.064-1.392-.52 0-.94.128-1.26.384-.32.256-.48.612-.48 1.068 0 .416.144.728.432.936.288.208.764.42 1.428.636.304.104.52.18.648.228.136.04.329.112.576.216.257.096.445.184.565.264.12.072.263.176.431.312.177.128.3.26.373.396.08.128.148.288.204.48.064.184.096.384.096.6 0 .712-.26 1.284-.78 1.716-.52.424-1.205.636-2.053.636zm11.896-8.544v8.4h-.84v-7.128l-2.94 4.92h-.12l-2.94-4.92V117h-.84v-8.4h1.044l2.796 4.68 2.796-4.68h1.044zm4.44 8.544c-.768 0-1.428-.18-1.98-.54a2.888 2.888 0 01-1.14-1.512l.72-.42c.152.52.432.928.84 1.224.408.288.932.432 1.572.432.624 0 1.108-.136 1.452-.408.352-.28.528-.648.528-1.104 0-.44-.16-.772-.48-.996-.32-.224-.848-.456-1.584-.696-.872-.288-1.448-.52-1.728-.696-.64-.384-.96-.94-.96-1.668 0-.712.248-1.272.744-1.68.496-.416 1.108-.624 1.836-.624.656 0 1.224.172 1.704.516.48.336.836.768 1.068 1.296l-.708.396c-.384-.928-1.072-1.392-2.064-1.392-.52 0-.94.128-1.26.384-.32.256-.48.612-.48 1.068 0 .416.144.728.432.936.288.208.764.42 1.428.636.304.104.52.18.648.228.136.04.328.112.576.216.256.096.444.184.564.264.12.072.264.176.432.312.176.128.3.26.372.396.08.128.148.288.204.48.064.184.096.384.096.6 0 .712-.26 1.284-.78 1.716-.52.424-1.204.636-2.052.636zM125.187 111h.792v6h-.792v-1.176c-.552.88-1.36 1.32-2.424 1.32a2.993 2.993 0 01-2.196-.912c-.6-.608-.9-1.352-.9-2.232 0-.88.3-1.624.9-2.232a2.993 2.993 0 012.196-.912c1.064 0 1.872.44 2.424 1.32V111zm-4.044 4.692c.456.456 1.016.684 1.68.684.664 0 1.224-.228 1.68-.684a2.324 2.324 0 00.684-1.692c0-.664-.228-1.224-.684-1.68a2.264 2.264 0 00-1.68-.696c-.664 0-1.224.232-1.68.696-.456.456-.684 1.016-.684 1.68 0 .664.228 1.228.684 1.692zM132.504 117h-1.056l-3-2.892V117h-.792v-6h.792v2.652l2.856-2.652h1.08l-3.096 2.88 3.216 3.12zm5.402-6v.768h-2.124V117h-.792v-5.232h-2.124V111h5.04zm5.333 0h.672v6h-.792v-4.62l-3.576 4.62h-.672v-6h.792v4.62l3.576-4.62zm6.163 2.916c.656.24.984.708.984 1.404 0 .488-.164.892-.492 1.212-.32.312-.784.468-1.392.468h-2.916v-6h2.676c.584 0 1.036.152 1.356.456.32.296.48.68.48 1.152 0 .6-.232 1.036-.696 1.308zm-1.14-2.148h-1.884v1.824h1.884c.696 0 1.044-.312 1.044-.936 0-.28-.092-.496-.276-.648-.176-.16-.432-.24-.768-.24zm.24 4.464c.352 0 .62-.084.804-.252.192-.168.288-.404.288-.708 0-.28-.096-.5-.288-.66-.184-.168-.452-.252-.804-.252h-2.124v1.872h2.124zm8.244-5.232h.792v6h-.792v-1.176c-.552.88-1.36 1.32-2.424 1.32a2.993 2.993 0 01-2.196-.912c-.6-.608-.9-1.352-.9-2.232 0-.88.3-1.624.9-2.232a2.993 2.993 0 012.196-.912c1.064 0 1.872.44 2.424 1.32V111zm-4.044 4.692c.456.456 1.016.684 1.68.684.664 0 1.224-.228 1.68-.684a2.324 2.324 0 00.684-1.692c0-.664-.228-1.224-.684-1.68a2.264 2.264 0 00-1.68-.696c-.664 0-1.224.232-1.68.696-.456.456-.684 1.016-.684 1.68 0 .664.228 1.228.684 1.692zm11.433.54h.96v2.376h-.792V117h-5.088v-6h.792v5.232h3.336V111h.792v5.232zm6.526-5.232h.672v6h-.792v-4.62l-3.576 4.62h-.672v-6h.792v4.62l3.576-4.62zm3.307-.96v-.696h3.12v.696h-3.12zm3.408.96h.672v6h-.792v-4.62L173.68 117h-.672v-6h.792v4.62l3.576-4.62zm9.715 0h.672v6h-.792v-4.62l-3.576 4.62h-.672v-6h.792v4.62l3.576-4.62zM69.292 131v6H68.5v-5.232h-3.456V137h-.792v-6h5.04zm4.891-.144c.856 0 1.584.304 2.184.912.608.608.912 1.352.912 2.232 0 .88-.304 1.624-.912 2.232-.6.608-1.328.912-2.184.912-1.064 0-1.872-.44-2.424-1.32v3.576h-.792V131h.792v1.176c.552-.88 1.36-1.32 2.424-1.32zm-1.74 4.836c.456.456 1.016.684 1.68.684.664 0 1.224-.228 1.68-.684a2.324 2.324 0 00.684-1.692c0-.664-.228-1.224-.684-1.68a2.264 2.264 0 00-1.68-.696c-.664 0-1.224.232-1.68.696-.456.456-.684 1.016-.684 1.68 0 .664.228 1.228.684 1.692zM82.964 131h.672v6h-.792v-4.62L79.268 137h-.672v-6h.792v4.62l3.576-4.62zm4.291-1.056a.522.522 0 01-.384.156.522.522 0 01-.384-.156.522.522 0 01-.156-.384c0-.152.052-.28.156-.384a.522.522 0 01.384-.156c.152 0 .28.052.384.156a.522.522 0 01.156.384c0 .152-.052.28-.156.384zm2.28 0a.522.522 0 01-.384.156.522.522 0 01-.384-.156.522.522 0 01-.156-.384c0-.152.052-.28.156-.384a.522.522 0 01.384-.156c.152 0 .28.052.384.156a.522.522 0 01.156.384c0 .152-.052.28-.156.384zm-1.452.912c.888 0 1.604.316 2.148.948.552.624.828 1.364.828 2.22 0 .088-.008.212-.024.372h-5.268c.08.608.336 1.092.768 1.452.44.352.98.528 1.62.528.456 0 .848-.092 1.176-.276.336-.192.588-.44.756-.744l.696.408a2.85 2.85 0 01-1.08 1.008c-.456.248-.976.372-1.56.372-.944 0-1.712-.296-2.304-.888-.592-.592-.888-1.344-.888-2.256 0-.896.292-1.644.876-2.244.584-.6 1.336-.9 2.256-.9zm0 .768c-.624 0-1.148.188-1.572.564-.416.368-.664.848-.744 1.44h4.476c-.08-.632-.324-1.124-.732-1.476a2.118 2.118 0 00-1.428-.528zM98.198 131v6h-.791v-4.788l-2.1 3.408h-.097l-2.1-3.408V137h-.791v-6h.912l2.028 3.288L97.287 131h.911zm6.839 0h.792v6h-.792v-1.176c-.552.88-1.36 1.32-2.424 1.32a2.993 2.993 0 01-2.196-.912c-.6-.608-.9-1.352-.9-2.232 0-.88.3-1.624.9-2.232a2.993 2.993 0 012.196-.912c1.064 0 1.872.44 2.424 1.32V131zm-4.044 4.692c.456.456 1.016.684 1.68.684.664 0 1.224-.228 1.68-.684a2.324 2.324 0 00.684-1.692c0-.664-.228-1.224-.684-1.68a2.264 2.264 0 00-1.68-.696c-.664 0-1.224.232-1.68.696-.456.456-.684 1.016-.684 1.68 0 .664.228 1.228.684 1.692zm12.309 1.452c-.904 0-1.656-.3-2.256-.9-.6-.608-.9-1.356-.9-2.244 0-.888.3-1.632.9-2.232.6-.608 1.352-.912 2.256-.912.592 0 1.124.144 1.596.432.472.28.816.66 1.032 1.14l-.648.372c-.16-.36-.42-.644-.78-.852a2.248 2.248 0 00-1.2-.324c-.664 0-1.224.232-1.68.696-.456.456-.684 1.016-.684 1.68 0 .664.228 1.228.684 1.692.456.456 1.016.684 1.68.684.448 0 .848-.104 1.2-.312a2.32 2.32 0 00.828-.864l.66.384c-.248.48-.612.86-1.092 1.14a3.11 3.11 0 01-1.596.42zm8.794-.9c-.608.6-1.352.9-2.232.9-.88 0-1.628-.3-2.244-.9-.608-.608-.912-1.356-.912-2.244 0-.888.304-1.632.912-2.232.616-.608 1.364-.912 2.244-.912.88 0 1.624.304 2.232.912.616.6.925 1.344.925 2.232 0 .888-.309 1.636-.925 2.244zm-3.912-.552c.456.456 1.016.684 1.68.684.664 0 1.224-.228 1.68-.684a2.324 2.324 0 00.684-1.692c0-.664-.228-1.224-.684-1.68a2.264 2.264 0 00-1.68-.696c-.664 0-1.224.232-1.68.696-.456.456-.684 1.016-.684 1.68 0 .664.228 1.228.684 1.692zm11.19.552c-.608.6-1.352.9-2.232.9-.88 0-1.628-.3-2.244-.9-.608-.608-.912-1.356-.912-2.244 0-.888.304-1.632.912-2.232.616-.608 1.364-.912 2.244-.912.88 0 1.624.304 2.232.912.616.6.924 1.344.924 2.232 0 .888-.308 1.636-.924 2.244zm-3.912-.552c.456.456 1.016.684 1.68.684.664 0 1.224-.228 1.68-.684a2.324 2.324 0 00.684-1.692c0-.664-.228-1.224-.684-1.68a2.264 2.264 0 00-1.68-.696c-.664 0-1.224.232-1.68.696-.456.456-.684 1.016-.684 1.68 0 .664.228 1.228.684 1.692zm8.825 1.452c-.864 0-1.584-.284-2.16-.852-.576-.576-.864-1.32-.864-2.232 0-1.024.152-1.808.456-2.352.304-.552.92-1.052 1.848-1.5.176-.088.408-.192.696-.312.296-.12.516-.216.66-.288.152-.072.316-.164.492-.276a1.33 1.33 0 00.396-.396c.088-.144.144-.316.168-.516l.624.36a1.615 1.615 0 01-.192.54 1.926 1.926 0 01-.3.408c-.096.104-.252.22-.468.348-.208.12-.372.208-.492.264l-.6.252-.564.24c-.56.24-.972.492-1.236.756-.264.256-.452.592-.564 1.008.272-.36.616-.624 1.032-.792a3.214 3.214 0 011.236-.264c.8 0 1.46.264 1.98.792.528.52.792 1.188.792 2.004 0 .808-.28 1.48-.84 2.016-.552.528-1.252.792-2.1.792zm0-.792c.624 0 1.136-.188 1.536-.564.408-.384.612-.868.612-1.452 0-.592-.192-1.076-.576-1.452-.376-.384-.88-.576-1.512-.576-.568 0-1.084.18-1.548.54-.464.352-.696.824-.696 1.416 0 .608.208 1.108.624 1.5.424.392.944.588 1.56.588zm12.185-.12h.84v2.376h-.792V137h-8.088v-6h.792v5.232h2.832V131h.792v5.232h2.832V131h.792v5.232zm4.576-5.376c.888 0 1.604.316 2.148.948.552.624.828 1.364.828 2.22 0 .088-.008.212-.024.372h-5.268c.08.608.336 1.092.768 1.452.44.352.98.528 1.62.528.456 0 .848-.092 1.176-.276.336-.192.588-.44.756-.744l.696.408a2.85 2.85 0 01-1.08 1.008c-.456.248-.976.372-1.56.372-.944 0-1.712-.296-2.304-.888-.592-.592-.888-1.344-.888-2.256 0-.896.292-1.644.876-2.244.584-.6 1.336-.9 2.256-.9zm0 .768c-.624 0-1.148.188-1.572.564-.416.368-.664.848-.744 1.44h4.476c-.08-.632-.324-1.124-.732-1.476a2.118 2.118 0 00-1.428-.528zm8.483-.624h.792v6h-.792v-2.616h-3.456V137h-.792v-6h.792v2.616h3.456V131zm6.835 0h.672v6h-.792v-4.62L162.67 137h-.672v-6h.792v4.62l3.576-4.62zm3.307-.96v-.696h3.12v.696h-3.12zm3.408.96h.672v6h-.792v-4.62l-3.576 4.62h-.672v-6h.792v4.62l3.576-4.62z" fill="#fff"/></g><defs><clipPath id="clip0"><path fill="#fff" d="M0 0h241v211H0z"/></clipPath><filter id="filter0_f" x="0" y="-15" width="241" height="241" filterUnits="userSpaceOnUse" color-interpolation-filters="sRGB"><feFlood flood-opacity="0" result="BackgroundImageFix"/><feBlend in="SourceGraphic" in2="BackgroundImageFix" result="shape"/><feGaussianBlur stdDeviation="34.5" result="effect1_foregroundBlur"/></filter></defs></svg>