<svg width="277" height="198" fill="none" xmlns="http://www.w3.org/2000/svg"><g filter="url(#filter0_f)"><circle cx="99" cy="99" r="30" fill="#F3972B" fill-opacity=".24" style="mix-blend-mode:hard-light"/></g><path d="M61.842 108.22c-1.29 0-2.39-.205-3.3-.616-.895-.411-1.57-.924-2.024-1.54-.44-.631-.675-1.276-.704-1.936 0-.132.044-.235.132-.308a.526.526 0 01.352-.132h1.98c.323 0 .535.147.638.44.323 1.056 1.305 1.584 2.948 1.584.895 0 1.599-.205 2.112-.616.513-.425.77-1.027.77-1.804 0-1.467-.917-2.2-2.75-2.2H59.73a.535.535 0 01-.396-.154.51.51 0 01-.154-.374v-.924c0-.235.103-.455.308-.66l3.938-3.85h-6.292a.51.51 0 01-.374-.154.51.51 0 01-.154-.374V93.15c0-.161.044-.293.132-.396a.536.536 0 01.396-.154h9.438c.161 0 .293.051.396.154a.536.536 0 01.154.396v1.32c0 .22-.095.425-.286.616l-3.806 3.916.264.022c1.408.117 2.523.543 3.344 1.276.836.733 1.254 1.782 1.254 3.146 0 .968-.264 1.811-.792 2.53-.513.719-1.232 1.276-2.156 1.672-.91.381-1.943.572-3.102.572zm14.033 0c-1.232 0-2.31-.235-3.234-.704-.924-.469-1.635-1.107-2.134-1.914-.498-.821-.748-1.745-.748-2.772 0-1.305.565-2.728 1.694-4.268l4.026-5.522c.088-.132.184-.235.286-.308a.75.75 0 01.462-.132h2.046c.132 0 .242.051.33.154a.448.448 0 01.132.33c0 .073-.036.169-.11.286l-3.08 4.268c.294-.073.61-.11.946-.11.983.03 1.885.279 2.706.748a5.169 5.169 0 011.98 1.87c.5.792.748 1.672.748 2.64 0 .983-.249 1.892-.748 2.728-.484.821-1.188 1.481-2.112 1.98-.909.484-1.972.726-3.19.726zm-.022-2.53c.836 0 1.54-.249 2.112-.748.572-.513.858-1.225.858-2.134 0-.895-.286-1.591-.858-2.09-.572-.513-1.276-.77-2.112-.77-.836 0-1.54.257-2.112.77-.572.499-.858 1.195-.858 2.09 0 .909.286 1.621.858 2.134.572.499 1.276.748 2.112.748zm13.53 2.552c-1.218 0-2.267-.205-3.147-.616-.865-.411-1.532-.953-2.002-1.628a4.112 4.112 0 01-.726-2.178v-.044c0-.117.044-.213.132-.286a.5.5 0 01.33-.11h2.046c.338 0 .558.147.66.44.206.645.543 1.122 1.012 1.43.484.308 1.05.462 1.694.462.822 0 1.504-.249 2.046-.748.558-.499.836-1.195.836-2.09 0-.792-.278-1.437-.836-1.936-.542-.499-1.224-.748-2.046-.748-.44 0-.799.059-1.078.176-.278.117-.55.279-.814.484a4.436 4.436 0 01-.418.286.735.735 0 01-.33.066h-2.024a.526.526 0 01-.352-.132.526.526 0 01-.132-.352l.77-7.524a.645.645 0 01.176-.418.597.597 0 01.44-.176h8.272a.51.51 0 01.374.154.51.51 0 01.154.374v1.474a.51.51 0 01-.154.374.51.51 0 01-.374.154h-6.358l-.352 3.586c.72-.499 1.68-.748 2.882-.748.954 0 1.834.205 2.64.616a4.68 4.68 0 011.958 1.738c.484.748.726 1.621.726 2.618 0 1.071-.249 2.009-.748 2.816-.498.792-1.202 1.408-2.112 1.848-.894.425-1.943.638-3.146.638z" fill="#F3972B"/><path d="M103.355 108.22c-1.305 0-2.427-.198-3.366-.594-.939-.396-1.65-.917-2.134-1.562s-.74-1.342-.77-2.09a.448.448 0 01.462-.462h1.958c.176 0 .308.037.396.11a.837.837 0 01.286.308c.147.499.484.917 1.012 1.254.528.337 1.247.506 2.156.506 1.041 0 1.826-.169 2.354-.506.528-.352.792-.836.792-1.452 0-.411-.139-.748-.418-1.012-.264-.264-.667-.491-1.21-.682-.528-.191-1.32-.425-2.376-.704-1.731-.411-3-.953-3.806-1.628-.792-.69-1.188-1.665-1.188-2.926 0-.85.227-1.606.682-2.266.47-.66 1.137-1.18 2.002-1.562.88-.381 1.899-.572 3.058-.572 1.203 0 2.244.213 3.124.638.88.425 1.547.96 2.002 1.606.469.63.719 1.261.748 1.892a.448.448 0 01-.462.462h-2.046c-.308 0-.521-.14-.638-.418-.088-.47-.381-.858-.88-1.166-.499-.323-1.115-.484-1.848-.484-.821 0-1.467.154-1.936.462-.469.308-.704.755-.704 1.342 0 .41.117.748.352 1.012s.601.499 1.1.704c.513.205 1.247.433 2.2.682 1.291.293 2.317.623 3.08.99.777.367 1.349.829 1.716 1.386.367.557.55 1.269.55 2.134 0 .939-.264 1.76-.792 2.464-.513.689-1.247 1.217-2.2 1.584-.939.367-2.024.55-3.256.55zm9.319-.22a.588.588 0 01-.396-.132.54.54 0 01-.154-.396V93.15a.54.54 0 01.154-.396.537.537 0 01.396-.154h1.738a.68.68 0 01.66.418l4.246 7.92 4.29-7.92c.147-.279.367-.418.66-.418h1.716c.162 0 .294.051.396.154a.535.535 0 01.154.396v14.322a.536.536 0 01-.154.396.585.585 0 01-.396.132h-1.848a.51.51 0 01-.374-.154.512.512 0 01-.154-.374v-9.526l-3.08 5.874c-.19.323-.44.484-.748.484h-.902c-.308 0-.557-.161-.748-.484l-3.08-5.874v9.526a.508.508 0 01-.154.374.464.464 0 01-.374.154h-1.848zm22.628.22c-1.305 0-2.427-.198-3.366-.594-.938-.396-1.65-.917-2.134-1.562s-.74-1.342-.77-2.09a.448.448 0 01.462-.462h1.958c.176 0 .308.037.396.11a.837.837 0 01.286.308c.147.499.484.917 1.012 1.254.528.337 1.247.506 2.156.506 1.042 0 1.826-.169 2.354-.506.528-.352.792-.836.792-1.452 0-.411-.139-.748-.418-1.012-.264-.264-.667-.491-1.21-.682-.528-.191-1.32-.425-2.376-.704-1.73-.411-2.999-.953-3.806-1.628-.792-.69-1.188-1.665-1.188-2.926 0-.85.228-1.606.682-2.266.47-.66 1.137-1.18 2.002-1.562.88-.381 1.9-.572 3.058-.572 1.203 0 2.244.213 3.124.638.88.425 1.548.96 2.002 1.606.47.63.719 1.261.748 1.892a.448.448 0 01-.462.462h-2.046c-.308 0-.52-.14-.638-.418-.088-.47-.381-.858-.88-1.166-.498-.323-1.114-.484-1.848-.484-.821 0-1.466.154-1.936.462-.469.308-.704.755-.704 1.342 0 .41.118.748.352 1.012.235.264.602.499 1.1.704.514.205 1.247.433 2.2.682 1.291.293 2.318.623 3.08.99.778.367 1.35.829 1.716 1.386.367.557.55 1.269.55 2.134 0 .939-.264 1.76-.792 2.464-.513.689-1.246 1.217-2.2 1.584-.938.367-2.024.55-3.256.55zm28.728-12.1c-.753 0-1.38-.25-1.88-.75-.5-.507-.75-1.13-.75-1.87 0-.74.25-1.36.75-1.86.5-.507 1.127-.76 1.88-.76.493 0 .937.12 1.33.36.393.233.68.55.86.95l-.54.31c-.133-.3-.35-.537-.65-.71a1.873 1.873 0 00-1-.27c-.553 0-1.02.193-1.4.58-.38.38-.57.847-.57 1.4 0 .553.19 1.023.57 1.41.38.38.847.57 1.4.57.373 0 .707-.087 1-.26.293-.18.523-.42.69-.72l.55.32c-.207.4-.51.717-.91.95-.4.233-.843.35-1.33.35zm5.449-5.24c.74 0 1.336.263 1.79.79a2.7 2.7 0 01.69 1.85c0 .073-.007.177-.02.31h-4.39c.066.507.28.91.64 1.21.366.293.816.44 1.35.44.38 0 .706-.077.98-.23.28-.16.49-.367.63-.62l.58.34a2.38 2.38 0 01-.9.84c-.38.207-.814.31-1.3.31-.787 0-1.427-.247-1.92-.74-.494-.493-.74-1.12-.74-1.88 0-.747.243-1.37.73-1.87.486-.5 1.113-.75 1.88-.75zm0 .64c-.52 0-.957.157-1.31.47-.347.307-.554.707-.62 1.2h3.73c-.067-.527-.27-.937-.61-1.23a1.766 1.766 0 00-1.19-.44zm6.21-.64c.713 0 1.32.253 1.82.76.506.507.76 1.127.76 1.86 0 .733-.254 1.353-.76 1.86-.5.507-1.107.76-1.82.76-.887 0-1.56-.367-2.02-1.1V98h-.66v-7h.66v.98c.46-.733 1.133-1.1 2.02-1.1zm-1.45 4.03c.38.38.846.57 1.4.57.553 0 1.02-.19 1.4-.57.38-.387.57-.857.57-1.41 0-.553-.19-1.02-.57-1.4a1.887 1.887 0 00-1.4-.58c-.554 0-1.02.193-1.4.58-.38.38-.57.847-.57 1.4 0 .553.19 1.023.57 1.41zm8.307-1.48c.547.2.82.59.82 1.17 0 .407-.137.743-.41 1.01-.267.26-.653.39-1.16.39h-2.43v-5h2.23c.487 0 .863.127 1.13.38.267.247.4.567.4.96 0 .5-.193.863-.58 1.09zm-.95-1.79h-1.57v1.52h1.57c.58 0 .87-.26.87-.78 0-.233-.077-.413-.23-.54-.147-.133-.36-.2-.64-.2zm.2 3.72c.293 0 .517-.07.67-.21.16-.14.24-.337.24-.59a.677.677 0 00-.24-.55c-.153-.14-.377-.21-.67-.21h-1.77v1.56h1.77zm6.21-4.36h.56v5h-.66v-3.85l-2.98 3.85h-.56v-5h.66v3.85l2.98-3.85zm4.286 5.12c-.754 0-1.38-.25-1.88-.75-.5-.507-.75-1.13-.75-1.87 0-.74.25-1.36.75-1.86.5-.507 1.126-.76 1.88-.76.493 0 .936.12 1.33.36.393.233.68.55.86.95l-.54.31c-.134-.3-.35-.537-.65-.71a1.876 1.876 0 00-1-.27c-.554 0-1.02.193-1.4.58-.38.38-.57.847-.57 1.4 0 .553.19 1.023.57 1.41.38.38.846.57 1.4.57.373 0 .706-.087 1-.26.293-.18.523-.42.69-.72l.55.32c-.207.4-.51.717-.91.95-.4.233-.844.35-1.33.35zm7.987 0c-.64 0-1.19-.15-1.65-.45a2.408 2.408 0 01-.95-1.26l.6-.35c.127.433.36.773.7 1.02.34.24.777.36 1.31.36.52 0 .924-.113 1.21-.34.294-.233.44-.54.44-.92 0-.367-.133-.643-.4-.83-.266-.187-.706-.38-1.32-.58-.726-.24-1.206-.433-1.44-.58-.533-.32-.8-.783-.8-1.39 0-.593.207-1.06.62-1.4.414-.347.924-.52 1.53-.52.547 0 1.02.143 1.42.43.4.28.697.64.89 1.08l-.59.33c-.32-.773-.893-1.16-1.72-1.16-.433 0-.783.107-1.05.32-.266.213-.4.51-.4.89 0 .347.12.607.36.78.24.173.637.35 1.19.53.254.087.434.15.54.19.114.033.274.093.48.18.214.08.37.153.47.22.1.06.22.147.36.26.147.107.25.217.31.33.067.107.124.24.17.4.054.153.08.32.08.5 0 .593-.216 1.07-.65 1.43-.433.353-1.003.53-1.71.53zm9.913-7.12v7h-.7v-5.94l-2.45 4.1h-.1l-2.45-4.1V96h-.7v-7h.87l2.33 3.9 2.33-3.9h.87zm3.701 7.12c-.64 0-1.19-.15-1.65-.45a2.403 2.403 0 01-.95-1.26l.6-.35c.126.433.36.773.7 1.02.34.24.776.36 1.31.36.52 0 .923-.113 1.21-.34.293-.233.44-.54.44-.92 0-.367-.134-.643-.4-.83-.267-.187-.707-.38-1.32-.58-.727-.24-1.207-.433-1.44-.58-.534-.32-.8-.783-.8-1.39 0-.593.206-1.06.62-1.4.413-.347.923-.52 1.53-.52.546 0 1.02.143 1.42.43.4.28.696.64.89 1.08l-.59.33c-.32-.773-.894-1.16-1.72-1.16-.434 0-.784.107-1.05.32-.267.213-.4.51-.4.89 0 .347.12.607.36.78.24.173.636.35 1.19.53.253.087.433.15.54.19.113.033.273.093.48.18.213.08.37.153.47.22.1.06.22.147.36.26.146.107.25.217.31.33.066.107.123.24.17.4.053.153.08.32.08.5 0 .593-.217 1.07-.65 1.43-.434.353-1.004.53-1.71.53zM224.154 91h.66v5h-.66v-.98c-.46.733-1.133 1.1-2.02 1.1a2.495 2.495 0 01-1.83-.76c-.5-.507-.75-1.127-.75-1.86 0-.733.25-1.353.75-1.86a2.495 2.495 0 011.83-.76c.887 0 1.56.367 2.02 1.1V91zm-3.37 3.91c.38.38.847.57 1.4.57.554 0 1.02-.19 1.4-.57.38-.387.57-.857.57-1.41 0-.553-.19-1.02-.57-1.4a1.885 1.885 0 00-1.4-.58c-.553 0-1.02.193-1.4.58-.38.38-.57.847-.57 1.4 0 .553.19 1.023.57 1.41zm9.468 1.09h-.88l-2.5-2.41V96h-.66v-5h.66v2.21l2.38-2.21h.9l-2.58 2.4 2.68 2.6zm4.501-5v.64h-1.77V96h-.66v-4.36h-1.77V91h4.2zm4.444 0h.56v5h-.66v-3.85l-2.98 3.85h-.56v-5h.66v3.85l2.98-3.85zm5.136 2.43c.547.2.82.59.82 1.17 0 .407-.137.743-.41 1.01-.267.26-.653.39-1.16.39h-2.43v-5h2.23c.487 0 .863.127 1.13.38.267.247.4.567.4.96 0 .5-.193.863-.58 1.09zm-.95-1.79h-1.57v1.52h1.57c.58 0 .87-.26.87-.78 0-.233-.077-.413-.23-.54-.147-.133-.36-.2-.64-.2zm.2 3.72c.293 0 .517-.07.67-.21.16-.14.24-.337.24-.59a.677.677 0 00-.24-.55c-.153-.14-.377-.21-.67-.21h-1.77v1.56h1.77zm6.87-4.36h.66v5h-.66v-.98c-.46.733-1.133 1.1-2.02 1.1a2.495 2.495 0 01-1.83-.76c-.5-.507-.75-1.127-.75-1.86 0-.733.25-1.353.75-1.86a2.495 2.495 0 011.83-.76c.887 0 1.56.367 2.02 1.1V91zm-3.37 3.91c.38.38.847.57 1.4.57.553 0 1.02-.19 1.4-.57.38-.387.57-.857.57-1.41 0-.553-.19-1.02-.57-1.4a1.887 1.887 0 00-1.4-.58c-.553 0-1.02.193-1.4.58-.38.38-.57.847-.57 1.4 0 .553.19 1.023.57 1.41zm9.528.45h.8v1.98h-.66V96h-4.24v-5h.66v4.36h2.78V91h.66v4.36zm5.438-4.36h.56v5h-.66v-3.85l-2.98 3.85h-.56v-5h.66v3.85l2.98-3.85zm2.756-.8v-.58h2.6v.58h-2.6zm2.84.8h.56v5h-.66v-3.85l-2.98 3.85h-.56v-5h.66v3.85l2.98-3.85zm8.095 0h.56v5h-.66v-3.85L272.66 96h-.56v-5h.66v3.85l2.98-3.85zM165.9 105v5h-.66v-4.36h-2.88V110h-.66v-5h4.2zm4.076-.12c.713 0 1.32.253 1.82.76.506.507.76 1.127.76 1.86 0 .733-.254 1.353-.76 1.86-.5.507-1.107.76-1.82.76-.887 0-1.56-.367-2.02-1.1V112h-.66v-7h.66v.98c.46-.733 1.133-1.1 2.02-1.1zm-1.45 4.03c.38.38.846.57 1.4.57.553 0 1.02-.19 1.4-.57.38-.387.57-.857.57-1.41 0-.553-.19-1.02-.57-1.4a1.886 1.886 0 00-1.4-.58c-.554 0-1.02.193-1.4.58-.38.38-.57.847-.57 1.4 0 .553.19 1.023.57 1.41zm8.767-3.91h.56v5h-.66v-3.85l-2.98 3.85h-.56v-5h.66v3.85l2.98-3.85zm3.576-.88a.435.435 0 01-.32.13.432.432 0 01-.32-.13.434.434 0 01-.13-.32c0-.127.043-.233.13-.32a.432.432 0 01.32-.13c.126 0 .233.043.32.13.086.087.13.193.13.32a.438.438 0 01-.13.32zm1.9 0a.435.435 0 01-.32.13.432.432 0 01-.32-.13.434.434 0 01-.13-.32c0-.127.043-.233.13-.32a.432.432 0 01.32-.13c.126 0 .233.043.32.13.086.087.13.193.13.32a.438.438 0 01-.13.32zm-1.21.76c.74 0 1.336.263 1.79.79a2.7 2.7 0 01.69 1.85c0 .073-.007.177-.02.31h-4.39c.066.507.28.91.64 1.21.366.293.816.44 1.35.44.38 0 .706-.077.98-.23.28-.16.49-.367.63-.62l.58.34a2.38 2.38 0 01-.9.84c-.38.207-.814.31-1.3.31-.787 0-1.427-.247-1.92-.74-.494-.493-.74-1.12-.74-1.88 0-.747.243-1.37.73-1.87.486-.5 1.113-.75 1.88-.75zm0 .64c-.52 0-.957.157-1.31.47-.347.307-.554.707-.62 1.2h3.73c-.067-.527-.27-.937-.61-1.23a1.768 1.768 0 00-1.19-.44zm8.43-.52v5h-.66v-3.99l-1.75 2.84h-.08l-1.75-2.84V110h-.66v-5h.76l1.69 2.74 1.69-2.74h.76zm5.699 0h.66v5h-.66v-.98c-.46.733-1.134 1.1-2.02 1.1a2.491 2.491 0 01-1.83-.76c-.5-.507-.75-1.127-.75-1.86 0-.733.25-1.353.75-1.86a2.491 2.491 0 011.83-.76c.886 0 1.56.367 2.02 1.1V105zm-3.37 3.91c.38.38.846.57 1.4.57.553 0 1.02-.19 1.4-.57.38-.387.57-.857.57-1.41 0-.553-.19-1.02-.57-1.4a1.886 1.886 0 00-1.4-.58c-.554 0-1.02.193-1.4.58-.38.38-.57.847-.57 1.4 0 .553.19 1.023.57 1.41zm10.257 1.21c-.753 0-1.38-.25-1.88-.75-.5-.507-.75-1.13-.75-1.87 0-.74.25-1.36.75-1.86.5-.507 1.127-.76 1.88-.76.493 0 .937.12 1.33.36.393.233.68.55.86.95l-.54.31c-.133-.3-.35-.537-.65-.71a1.873 1.873 0 00-1-.27c-.553 0-1.02.193-1.4.58-.38.38-.57.847-.57 1.4 0 .553.19 1.023.57 1.41.38.38.847.57 1.4.57.373 0 .707-.087 1-.26.293-.18.523-.42.69-.72l.55.32c-.207.4-.51.717-.91.95-.4.233-.843.35-1.33.35zm7.329-.75c-.507.5-1.127.75-1.86.75-.734 0-1.357-.25-1.87-.75-.507-.507-.76-1.13-.76-1.87 0-.74.253-1.36.76-1.86a2.56 2.56 0 011.87-.76c.733 0 1.353.253 1.86.76.513.5.77 1.12.77 1.86s-.257 1.363-.77 1.87zm-3.26-.46c.38.38.846.57 1.4.57.553 0 1.02-.19 1.4-.57.38-.387.57-.857.57-1.41 0-.553-.19-1.02-.57-1.4a1.886 1.886 0 00-1.4-.58c-.554 0-1.02.193-1.4.58-.38.38-.57.847-.57 1.4 0 .553.19 1.023.57 1.41zm9.324.46c-.507.5-1.127.75-1.86.75-.733 0-1.357-.25-1.87-.75-.507-.507-.76-1.13-.76-1.87 0-.74.253-1.36.76-1.86a2.562 2.562 0 011.87-.76c.733 0 1.353.253 1.86.76.513.5.77 1.12.77 1.86s-.257 1.363-.77 1.87zm-3.26-.46c.38.38.847.57 1.4.57.553 0 1.02-.19 1.4-.57.38-.387.57-.857.57-1.41 0-.553-.19-1.02-.57-1.4a1.886 1.886 0 00-1.4-.58c-.553 0-1.02.193-1.4.58-.38.38-.57.847-.57 1.4 0 .553.19 1.023.57 1.41zm7.355 1.21c-.72 0-1.32-.237-1.8-.71-.48-.48-.72-1.1-.72-1.86 0-.853.126-1.507.38-1.96.253-.46.766-.877 1.54-1.25.146-.073.34-.16.58-.26.246-.1.43-.18.55-.24.126-.06.263-.137.41-.23.146-.1.256-.21.33-.33.073-.12.12-.263.14-.43l.52.3c-.027.16-.08.31-.16.45s-.164.253-.25.34c-.08.087-.21.183-.39.29-.174.1-.31.173-.41.22l-.5.21-.47.2c-.467.2-.81.41-1.03.63-.22.213-.377.493-.47.84.226-.3.513-.52.86-.66.353-.147.696-.22 1.03-.22.666 0 1.216.22 1.65.66.44.433.66.99.66 1.67 0 .673-.234 1.233-.7 1.68-.46.44-1.044.66-1.75.66zm0-.66c.52 0 .946-.157 1.28-.47.34-.32.51-.723.51-1.21 0-.493-.16-.897-.48-1.21-.314-.32-.734-.48-1.26-.48-.474 0-.904.15-1.29.45-.387.293-.58.687-.58 1.18 0 .507.173.923.52 1.25.353.327.786.49 1.3.49zm10.153-.1h.7v1.98h-.66V110h-6.74v-5h.66v4.36h2.36V105h.66v4.36h2.36V105h.66v4.36zm3.814-4.48c.74 0 1.336.263 1.79.79a2.7 2.7 0 01.69 1.85c0 .073-.007.177-.02.31h-4.39c.066.507.28.91.64 1.21.366.293.816.44 1.35.44.38 0 .706-.077.98-.23.28-.16.49-.367.63-.62l.58.34a2.38 2.38 0 01-.9.84c-.38.207-.814.31-1.3.31-.787 0-1.427-.247-1.92-.74-.494-.493-.74-1.12-.74-1.88 0-.747.243-1.37.73-1.87.486-.5 1.113-.75 1.88-.75zm0 .64c-.52 0-.957.157-1.31.47-.347.307-.554.707-.62 1.2h3.73c-.067-.527-.27-.937-.61-1.23a1.768 1.768 0 00-1.19-.44zm7.069-.52h.66v5h-.66v-2.18h-2.88V110h-.66v-5h.66v2.18h2.88V105zm5.696 0h.56v5h-.66v-3.85l-2.98 3.85h-.56v-5h.66v3.85l2.98-3.85zm2.756-.8v-.58h2.6v.58h-2.6zm2.84.8h.56v5h-.66v-3.85l-2.98 3.85h-.56v-5h.66v3.85l2.98-3.85z" fill="#fff"/><defs><filter id="filter0_f" x="0" y="0" width="198" height="198" filterUnits="userSpaceOnUse" color-interpolation-filters="sRGB"><feFlood flood-opacity="0" result="BackgroundImageFix"/><feBlend in="SourceGraphic" in2="BackgroundImageFix" result="shape"/><feGaussianBlur stdDeviation="34.5" result="effect1_foregroundBlur"/></filter></defs></svg>